<svg width="1024" height="500" viewBox="0 0 1024 500" fill="none" xmlns="http://www.w3.org/2000/svg">
  <defs>
    <linearGradient id="bg" x1="84" y1="28" x2="944" y2="520" gradientUnits="userSpaceOnUse">
      <stop stop-color="#F8FAFF" />
      <stop offset="1" stop-color="#EEF4FF" />
    </linearGradient>
    <linearGradient id="blueGlow" x1="0" y1="0" x2="1" y2="1">
      <stop stop-color="#6EB9FF" stop-opacity="0.55" />
      <stop offset="1" stop-color="#0A60FF" stop-opacity="0.15" />
    </linearGradient>
    <filter id="shadow" x="-20%" y="-20%" width="140%" height="140%">
      <feDropShadow dx="0" dy="20" stdDeviation="20" flood-color="#0F172A" flood-opacity="0.12" />
    </filter>
    <filter id="softShadow" x="-20%" y="-20%" width="140%" height="140%">
      <feDropShadow dx="0" dy="12" stdDeviation="12" flood-color="#0F172A" flood-opacity="0.08" />
    </filter>
    <clipPath id="screenClip">
      <rect x="690" y="52" width="264" height="396" rx="34" />
    </clipPath>
    <clipPath id="fsdClip">
      <rect x="560" y="314" width="310" height="126" rx="24" />
    </clipPath>
  </defs>

  <rect width="1024" height="500" rx="34" fill="url(#bg)" />

  <circle cx="910" cy="86" r="120" fill="url(#blueGlow)" />
  <circle cx="752" cy="414" r="138" fill="url(#blueGlow)" />
  <circle cx="156" cy="430" r="170" fill="#FFFFFF" fill-opacity="0.55" />

  <rect x="42" y="42" width="498" height="416" rx="32" fill="#FFFFFF" fill-opacity="0.82" stroke="#DDE6F6" />

  <rect x="74" y="74" width="74" height="74" rx="22" fill="#FFFFFF" stroke="#DDE6F6" />
  <image href="ios/App/App/Assets.xcassets/AppIcon.appiconset/AppIcon-512@2x.png" x="74" y="74" width="74" height="74" preserveAspectRatio="xMidYMid slice" />

  <text x="170" y="103" fill="#0F172A" font-family="Helvetica" font-size="20" font-weight="700" letter-spacing="0.5">autosteerplus</text>
  <text x="170" y="132" fill="#5B6472" font-family="Helvetica" font-size="17" font-weight="500">Native device portal for setup, OTA, and Bluetooth control.</text>

  <text x="74" y="208" fill="#0F172A" font-family="Helvetica" font-size="48" font-weight="700" letter-spacing="-1.5">Manage your</text>
  <text x="74" y="261" fill="#0F172A" font-family="Helvetica" font-size="48" font-weight="700" letter-spacing="-1.5">device on the go</text>

  <text x="74" y="311" fill="#5B6472" font-family="Helvetica" font-size="21" font-weight="500">Guided onboarding, device settings, OTA updates,</text>
  <text x="74" y="341" fill="#5B6472" font-family="Helvetica" font-size="21" font-weight="500">and visual verification in one mobile app.</text>

  <rect x="74" y="378" width="140" height="40" rx="20" fill="#E8F0FF" />
  <text x="99" y="403" fill="#0A60FF" font-family="Helvetica" font-size="17" font-weight="700">Bluetooth</text>

  <rect x="224" y="378" width="154" height="40" rx="20" fill="#E8F0FF" />
  <text x="251" y="403" fill="#0A60FF" font-family="Helvetica" font-size="17" font-weight="700">OTA updates</text>

  <rect x="388" y="378" width="118" height="40" rx="20" fill="#E8F0FF" />
  <text x="414" y="403" fill="#0A60FF" font-family="Helvetica" font-size="17" font-weight="700">FSD docs</text>

  <rect x="560" y="314" width="310" height="126" rx="24" fill="#FFFFFF" fill-opacity="0.92" stroke="#DDE6F6" filter="url(#softShadow)" />
  <image href="fsd_in_Action.JPG" x="560" y="314" width="310" height="126" preserveAspectRatio="xMidYMid slice" clip-path="url(#fsdClip)" />
  <rect x="580" y="333" width="126" height="28" rx="14" fill="#0F172A" fill-opacity="0.76" />
  <text x="597" y="352" fill="#FFFFFF" font-family="Helvetica" font-size="14" font-weight="700">FSD in action</text>

  <rect x="690" y="52" width="264" height="396" rx="34" fill="#FFFFFF" stroke="#DDE6F6" filter="url(#shadow)" />
  <image href="IMG_0541.PNG" x="690" y="52" width="264" height="396" preserveAspectRatio="xMidYMin slice" clip-path="url(#screenClip)" />

  <rect x="716" y="410" width="170" height="44" rx="22" fill="#FFFFFF" fill-opacity="0.92" stroke="#DDE6F6" />
  <text x="737" y="438" fill="#0F172A" font-family="Helvetica" font-size="18" font-weight="700">iPhone + Android</text>
</svg>
